HIERARCHY
ROOT root     
{
	OFFSET 0.0000 0.0000 0.0000
	CHANNELS 6 Xposition Yposition Zposition Zrotation Yrotation Xrotation
	JOINT pelvis   
	{
		OFFSET 0.0000 0.0000 0.0000
		CHANNELS 3 Zrotation Yrotation Xrotation
		JOINT thorax   
		{
			OFFSET 0.0000 23.0750 -5.0000
			CHANNELS 3 Zrotation Yrotation Xrotation
			JOINT rclavicle
			{
				OFFSET 0.0000 28.0009 0.0000
				CHANNELS 3 Zrotation Yrotation Xrotation
				JOINT rhumerus 
				{
					OFFSET -18.5725 5.5939 0.0000
					CHANNELS 3 Zrotation Yrotation Xrotation
					JOINT rradius  
					{
						OFFSET -24.8459 0.0000 0.0000
						CHANNELS 3 Zrotation Yrotation Xrotation
						JOINT rhand    
						{
							OFFSET -24.5477 0.0000 0.0000
							CHANNELS 3 Zrotation Yrotation Xrotation
							End Site
							{
								OFFSET -8.1826 0.0000 0.0000
							}
						}
					}
				}
			}
			JOINT lclavicle
			{
				OFFSET 0.0000 28.0009 0.0000
				CHANNELS 3 Zrotation Yrotation Xrotation
				JOINT lhumerus 
				{
					OFFSET 18.5725 5.5939 0.0000
					CHANNELS 3 Zrotation Yrotation Xrotation
					JOINT lradius  
					{
						OFFSET 24.8459 0.0000 0.0000
						CHANNELS 3 Zrotation Yrotation Xrotation
						JOINT lhand    
						{
							OFFSET 24.5477 0.0000 0.0000
							CHANNELS 3 Zrotation Yrotation Xrotation
							End Site
							{
								OFFSET 8.1826 0.0000 0.0000
							}
						}
					}
				}
			}
			JOINT head     
			{
				OFFSET 0.0000 35.2030 0.0000
				CHANNELS 3 Zrotation Yrotation Xrotation
				End Site
				{
					OFFSET 0.0000 11.7343 0.0000
				}
			}
		}
		JOINT rfemur   
		{
			OFFSET -8.2817 0.0000 0.0000
			CHANNELS 3 Zrotation Yrotation Xrotation
			JOINT rtibia   
			{
				OFFSET 0.0000 -43.3627 0.0000
				CHANNELS 3 Zrotation Yrotation Xrotation
				JOINT rfoot    
				{
					OFFSET 0.0000 -38.2947 0.0000
					CHANNELS 3 Zrotation Yrotation Xrotation
					JOINT rtoes    
					{
						OFFSET 0.0000 0.0000 16.6054
						CHANNELS 3 Zrotation Yrotation Xrotation
						End Site
						{
							OFFSET 0.0000 0.0000 5.5351
						}
					}
				}
			}
		}
		JOINT lfemur   
		{
			OFFSET 8.2817 0.0000 0.0000
			CHANNELS 3 Zrotation Yrotation Xrotation
			JOINT ltibia   
			{
				OFFSET 0.0000 -43.3627 0.0000
				CHANNELS 3 Zrotation Yrotation Xrotation
				JOINT lfoot    
				{
					OFFSET 0.0000 -38.2947 0.0000
					CHANNELS 3 Zrotation Yrotation Xrotation
					JOINT ltoes    
					{
						OFFSET 0.0000 0.0000 16.6054
						CHANNELS 3 Zrotation Yrotation Xrotation
						End Site
						{
							OFFSET 0.0000 0.0000 5.5351
						}
					}
				}
			}
		}
	}
}
MOTION
Frames: 8
Frame Time: .0333333
93.52 77.115 15.145 18.8872 -87.2124 20.0548 0 -0 0 0.0893011 -7.19067 -1.48163 26.6443 -6.71406 -2.30074e-05 61.0052 13.4652 -31.6643 -0 30.6625 -0 -43.235 23.8809 -9.58053 -22.9887 9.4136 4.5612e-05 -60.1137 -5.03958 -19.9667 0 -34.5466 0 49.2097 -12.6043 -5.79041 6.20405 -0.697901 -39.6217 3.08888 -10.3879 -69.1903 -0 -0 56.6618 -1.01088e-06 -6.19725 -9.11441 0.98541 -2.93125e-07 -59.5084 -3.91491 1.54188 -69.6964 -0 -0 56.7151 7.56798e-05 13.0372 -13.4957 -3.09325 9.17936e-06 -41.3526 
93.699 76.692 15.008 18.8151 -87.1464 20.5043 0 -0 0 0.132904 -7.21552 -1.30875 26.727 -6.7464 5.70508e-05 61.2085 13.4766 -31.1833 -0 29.9148 -0 -42.9338 24.0129 -9.56136 -23.0385 9.4486 7.59034e-05 -60.3704 -4.87645 -19.4481 0 -34.1998 0 49.079 -12.4529 -5.70324 6.20074 -0.62992 -39.9551 3.20473 -10.2862 -70.2802 -0 -0 57.8794 -1.41758e-06 -6.38291 -9.70561 1.08041 -2.07021e-06 -59.2175 -3.88368 1.54417 -70.8138 -0 -0 57.8981 -2.47564e-05 13.0036 -13.9169 -3.17914 -2.94223e-05 -41.3747 
93.87 76.265 14.881 19.3422 -87.0477 20.3473 0 -0 0 0.152501 -7.26365 -1.14291 26.8133 -6.76058 -2.98289e-05 61.3821 13.4467 -30.7586 -0 29.1919 -0 -42.6303 24.1518 -9.54365 -23.0829 9.44056 4.53153e-05 -60.5982 -4.68276 -18.9861 0 -33.8297 0 48.9469 -12.2899 -5.61095 6.19576 -0.57908 -40.2508 3.27712 -10.2109 -71.3436 -0 -0 59.0924 8.34372e-06 -6.58182 -10.323 1.18449 5.66334e-06 -58.9116 -3.87163 1.50462 -71.8975 -0 -0 59.0529 3.50432e-06 12.9803 -14.3266 -3.26453 6.46205e-05 -41.386 
94.033 75.835 14.765 20.3726 -86.9223 19.6773 0 -0 0 0.1533 -7.32647 -0.969202 26.8994 -6.8001 -3.82844e-05 61.5322 13.4458 -30.3875 -1.68698e-07 28.4465 -6.65557e-07 -42.3281 24.3106 -9.53357 -23.1258 9.45293 -3.46886e-05 -60.8055 -4.557 -18.5614 0 -33.3759 0 48.8081 -12.1439 -5.52618 6.18535 -0.547962 -40.5211 3.30714 -10.1581 -72.3776 -0 -0 60.3002 9.18862e-06 -6.78643 -10.9532 1.29529 2.91578e-06 -58.5774 -3.87482 1.42691 -72.9432 -0 -0 60.1818 -9.60773e-05 12.971 -14.7264 -3.35075 4.79463e-05 -41.383 
94.189 75.406 14.661 21.7822 -86.7919 18.618 0 -0 0 0.141101 -7.3995 -0.803304 26.9796 -6.82314 5.09896e-05 61.6569 13.415 -30.0803 -0 27.7224 -0 -42.0409 24.445 -9.51671 -23.1762 9.44077 6.19113e-05 -60.9802 -4.43791 -18.198 0 -32.8822 0 48.6679 -11.9904 -5.43823 6.16476 -0.536267 -40.7675 3.2918 -10.1174 -73.3955 -0 -0 61.4989 2.34224e-05 -6.99785 -11.5714 1.41037 -6.57251e-06 -58.2555 -3.88867 1.31114 -73.9613 -0 -0 61.2751 -2.35927e-05 12.9779 -15.1126 -3.43853 4.57587e-05 -41.358 
94.342 74.981 14.567 23.4183 -86.6683 17.32 0 -0 0 0.122998 -7.47717 -0.647095 27.0509 -6.82292 -6.52993e-06 61.7561 13.3512 -29.8374 -0 27.0241 -0 -41.7704 24.5374 -9.48659 -23.2417 9.40488 1.20726e-05 -61.123 -4.32946 -17.9031 0 -32.3473 0 48.5298 -11.8272 -5.34666 6.13007 -0.542184 -40.9949 3.23295 -10.08 -74.4023 -0 -0 62.6834 4.60901e-05 -7.21482 -12.1605 1.52743 1.16152e-05 -57.9601 -3.90705 1.16218 -74.9551 -0 -0 62.3323 -2.28314e-05 13.0068 -15.4833 -3.52871 6.55464e-05 -41.306 
94.492 74.562 14.482 25.0705 -86.5213 16.022 0 -0 0 0.111201 -7.54745 -0.493598 27.1081 -6.82418 4.78962e-05 61.8361 13.2967 -29.6487 -0 26.3221 -0 -41.5175 24.5871 -9.44379 -23.3238 9.37969 -3.93495e-06 -61.2355 -4.28318 -17.6603 0 -31.7465 0 48.3883 -11.6703 -5.25796 6.07867 -0.564831 -41.2166 3.14049 -10.0317 -75.395 -0 -0 63.846 -2.54245e-05 -7.43812 -12.7084 1.64506 -2.44535e-05 -57.6915 -3.91977 0.993747 -75.9297 -0 -0 63.3547 -0.000126971 13.0555 -15.8415 -3.62189 -1.43469e-05 -41.2291 
94.641 74.15 14.403 26.6208 -86.3915 14.8217 0 -0 0 0.113301 -7.60623 -0.347601 27.1496 -6.80499 -3.00168e-05 61.8939 13.2245 -29.5115 -0 25.6401 -0 -41.2813 24.5713 -9.37918 -23.4251 9.3408 -2.54638e-05 -61.3178 -4.26541 -17.4858 0 -31.1059 0 48.2455 -11.506 -5.16621 6.00812 -0.60059 -41.4334 3.02153 -9.9636 -76.3798 -0 -0 64.9769 3.58382e-05 -7.67006 -13.2092 1.76258 -1.93577e-05 -57.4623 -3.91922 0.81288 -76.8897 -0 -0 64.3429 -9.19094e-05 13.1263 -16.1837 -3.7185 1.29741e-05 -41.127 
